# xmcd
#
# Track frame offsets: 
#        150
#        12379
#        24912
#        48166
#        63801
#        81973
#
# Disc length: 1374 seconds
#
# Revision: 0
# Processed by: cddbd v1.5.2PL0 Copyright (c) Steve Scherf et al.
# Submitted via: ExactAudioCopy v1.0b2
#
DISCID=3b055c06
DTITLE=milktub - Sisters of fear
DYEAR=2000
DGENRE=Game
TTITLE0=milktub feat. 伊藤瞳子＆硝子 - Fu-kin Hi-kin Everyday
TTITLE1=milktub feat. Luke＆Michiru - BODY and MIND
TTITLE2=Michiru - One Night Star Mine
TTITLE3=milktub feat. 伊藤瞳子＆硝子 - Fu-kin Hi-kin Everyday（milktub Remix）
TTITLE4=milktub feat. Luke＆Michiru - BODY HACKER
TTITLE5=milktub feat. 伊藤硝子 - Give your love
EXTD=
EXTT0=
EXTT1=
EXTT2=
EXTT3=
EXTT4=
EXTT5=
PLAYORDER=
